<mxfile host="app.diagrams.net" agent="Mozilla/5.0 (Windows NT 10.0; Win64; x64) AppleWebKit/537.36 (KHTML, like Gecko) Chrome/140.0.0.0 Safari/537.36" version="28.2.1">
  <diagram id="d8afRlCbByKWBdXQEvp7" name="ページ1">
    <mxGraphModel dx="786" dy="451" grid="1" gridSize="10" guides="1" tooltips="1" connect="1" arrows="1" fold="1" page="1" pageScale="1" pageWidth="827" pageHeight="1169" math="0" shadow="0">
      <root>
        <mxCell id="0" />
        <mxCell id="1" parent="0" />
        <mxCell id="KremJut4fN1YYgCVLWq4-2" value="RoboDog" style="rounded=0;whiteSpace=wrap;html=1;" vertex="1" parent="1">
          <mxGeometry x="290" y="70" width="120" height="60" as="geometry" />
        </mxCell>
        <mxCell id="KremJut4fN1YYgCVLWq4-3" value="名前" style="rounded=0;whiteSpace=wrap;html=1;" vertex="1" parent="1">
          <mxGeometry x="30" y="210" width="120" height="60" as="geometry" />
        </mxCell>
        <mxCell id="KremJut4fN1YYgCVLWq4-4" value="" style="endArrow=diamondThin;html=1;rounded=0;endFill=0;endSize=15;" edge="1" parent="1" source="KremJut4fN1YYgCVLWq4-3" target="KremJut4fN1YYgCVLWq4-2">
          <mxGeometry width="50" height="50" relative="1" as="geometry">
            <mxPoint x="300" y="210" as="sourcePoint" />
            <mxPoint x="350" y="160" as="targetPoint" />
          </mxGeometry>
        </mxCell>
        <mxCell id="KremJut4fN1YYgCVLWq4-5" value="時刻" style="rounded=0;whiteSpace=wrap;html=1;" vertex="1" parent="1">
          <mxGeometry x="290" y="210" width="120" height="60" as="geometry" />
        </mxCell>
        <mxCell id="KremJut4fN1YYgCVLWq4-6" value="挨拶" style="rounded=0;whiteSpace=wrap;html=1;" vertex="1" parent="1">
          <mxGeometry x="160" y="210" width="120" height="60" as="geometry" />
        </mxCell>
        <mxCell id="KremJut4fN1YYgCVLWq4-8" value="2つの整数" style="rounded=0;whiteSpace=wrap;html=1;" vertex="1" parent="1">
          <mxGeometry x="420" y="210" width="120" height="60" as="geometry" />
        </mxCell>
        <mxCell id="KremJut4fN1YYgCVLWq4-9" value="足し算結果" style="rounded=0;whiteSpace=wrap;html=1;" vertex="1" parent="1">
          <mxGeometry x="550" y="210" width="120" height="60" as="geometry" />
        </mxCell>
        <mxCell id="KremJut4fN1YYgCVLWq4-10" value="" style="endArrow=diamondThin;html=1;rounded=0;endFill=0;endSize=15;" edge="1" parent="1" source="KremJut4fN1YYgCVLWq4-6" target="KremJut4fN1YYgCVLWq4-2">
          <mxGeometry width="50" height="50" relative="1" as="geometry">
            <mxPoint x="380" y="250" as="sourcePoint" />
            <mxPoint x="442" y="180" as="targetPoint" />
          </mxGeometry>
        </mxCell>
        <mxCell id="KremJut4fN1YYgCVLWq4-11" value="" style="endArrow=diamondThin;html=1;rounded=0;endFill=0;endSize=15;" edge="1" parent="1" source="KremJut4fN1YYgCVLWq4-5" target="KremJut4fN1YYgCVLWq4-2">
          <mxGeometry width="50" height="50" relative="1" as="geometry">
            <mxPoint x="570" y="230" as="sourcePoint" />
            <mxPoint x="502" y="140" as="targetPoint" />
          </mxGeometry>
        </mxCell>
        <mxCell id="KremJut4fN1YYgCVLWq4-12" value="" style="endArrow=diamondThin;html=1;rounded=0;endFill=0;endSize=15;" edge="1" parent="1" source="KremJut4fN1YYgCVLWq4-8" target="KremJut4fN1YYgCVLWq4-2">
          <mxGeometry width="50" height="50" relative="1" as="geometry">
            <mxPoint x="460" y="220" as="sourcePoint" />
            <mxPoint x="522" y="140" as="targetPoint" />
          </mxGeometry>
        </mxCell>
        <mxCell id="KremJut4fN1YYgCVLWq4-13" value="" style="endArrow=diamondThin;html=1;rounded=0;endFill=0;endSize=15;" edge="1" parent="1" source="KremJut4fN1YYgCVLWq4-9" target="KremJut4fN1YYgCVLWq4-2">
          <mxGeometry width="50" height="50" relative="1" as="geometry">
            <mxPoint x="570" y="270" as="sourcePoint" />
            <mxPoint x="632" y="190" as="targetPoint" />
          </mxGeometry>
        </mxCell>
        <mxCell id="KremJut4fN1YYgCVLWq4-14" value="ドメインリスト = 名刺リストを、線でつないだもの" style="text;html=1;align=left;verticalAlign=middle;resizable=0;points=[];autosize=1;strokeColor=none;fillColor=none;" vertex="1" parent="1">
          <mxGeometry x="30" y="30" width="300" height="30" as="geometry" />
        </mxCell>
      </root>
    </mxGraphModel>
  </diagram>
</mxfile>
